<?xml version="1.0" encoding="UTF-8"?>
<svg id="Layer_2" xmlns="http://www.w3.org/2000/svg" viewBox="0 0 100.23 100.06">
  <g id="Layer_1-2" data-name="Layer_1">
    <path d="M20.28,36.54c-2.95,2.16-15.65,2.35-18.37-.46C-.07,34.01.14,30.7.02,27.94c-.03-5.3-.03-12.71,0-17.95C.16,6.84-.06,2.8,3.12,1.22,6.69-.33,14.13-.35,18.66.85c4.33,1.41,3.83,6.27,3.98,10.23.02,4.76,0,10.81,0,15.53-.13,4.92.11,7.85-2.27,9.86l-.1.07Z"/>
    <path d="M46.14,36.54c-2.95,2.16-15.65,2.35-18.37-.46-1.98-2.06-1.77-5.37-1.89-8.13-.03-5.3-.03-12.71,0-17.95.13-3.15-.08-7.19,3.09-8.77,3.57-1.55,11.01-1.57,15.54-.36,4.33,1.41,3.83,6.27,3.98,10.23.02,4.76,0,10.81,0,15.53-.13,4.92.11,7.85-2.27,9.86l-.1.07Z"/>
    <path d="M71.86,51.62c-3.1,1.6-9.02,1.31-12.78,1.12-3.02-.32-5.44-.6-6.62-3.24-.62-1.54-.67-3.52-.71-5.37.32-11.2-.77-29.08.51-40.12C53.36.16,57.9.27,61.57.07c3.82.14,8.86-.56,11.52,2.39,1.21,1.69,1.17,4.04,1.25,6.16.05,7.48,0,20.84.02,30.34-.16,4.9.72,10.96-2.41,12.6l-.1.06Z"/>
    <path d="M46.7,42.61c2.14,4.11,1.59,10.99,1.17,15.75-.36,3.97-2.94,6.57-6.87,6.88-6.16.94-14.6-.59-20.38,1.41-3.09,1.2-3.71,4.7-4,7.69-.49,4.8-.41,11.9-1.03,16.76-.34,4.94-3.84,9.07-9.03,8.53-5.31-.32-6.48-4.42-6.33-9.13-.02-10.92-.03-32.47,0-42.36.16-2.79-.25-6.24,2.7-7.38,5.39-1.31,11.48-.48,18.35-.71,5.32,0,10.92,0,15.29,0,5.16.14,8.09-.13,10.06,2.47l.06.1Z"/>
    <path d="M97.72,51.62c-3.1,1.6-9.02,1.31-12.78,1.12-3.02-.32-5.44-.6-6.62-3.24-.62-1.54-.67-3.52-.71-5.37.32-11.2-.77-29.08.51-40.12,1.1-3.84,5.65-3.74,9.32-3.93,3.82.14,8.86-.56,11.52,2.39,1.21,1.69,1.17,4.04,1.25,6.16.05,7.48,0,20.84.02,30.34-.16,4.9.72,10.96-2.41,12.6l-.1.06Z"/>
    <path d="M97.09,58.87c1.57,1.31,1.37,6.53,1.2,10.34-.5,7.83-.49,19.7-1.61,26.95-.66,3.97-4.03,3.82-7.35,3.88-13.79.02-51.3.02-65.09,0-6.01.16-7.09-1.74-6.95-7.48.17-4.67.37-11.26,1.23-16.36.53-3.83,2.97-6.46,6.98-6.78,4.09-.55,9.24-.27,13.55-.4,6.23.04,10.9-1.58,13.34-7.05,1.51-2.98,4.48-4.52,7.92-4.73,8.05-.42,19.15-.08,27.3-.18,3.12.18,7.03-.39,9.41,1.74l.07.07Z"/>
  </g>
</svg>